<svg width="56" height="44" viewBox="0 0 56 44" fill="none" xmlns="http://www.w3.org/2000/svg">
<path d="M12.6 41.25C5.64375 41.25 0 35.707 0 28.875C0 23.4781 3.5175 18.8891 8.4175 17.1961C8.40875 16.9641 8.4 16.732 8.4 16.5C8.4 8.90312 14.665 2.75 22.4 2.75C27.5887 2.75 32.1125 5.51719 34.5363 9.64219C35.8662 8.76562 37.4762 8.25 39.2 8.25C43.8375 8.25 47.6 11.9453 47.6 16.5C47.6 17.5484 47.3987 18.5453 47.04 19.4734C52.15 20.4875 56 24.9305 56 30.25C56 36.3258 50.9862 41.25 44.8 41.25H12.6ZM19.5125 22.6016C18.69 23.4094 18.69 24.7156 19.5125 25.5148C20.335 26.3141 21.665 26.3227 22.4787 25.5148L25.8912 22.1633V33.6875C25.8912 34.8305 26.8275 35.75 27.9912 35.75C29.155 35.75 30.0912 34.8305 30.0912 33.6875V22.1633L33.5037 25.5148C34.3262 26.3227 35.6562 26.3227 36.47 25.5148C37.2837 24.707 37.2925 23.4008 36.47 22.6016L29.47 15.7266C28.6475 14.9187 27.3175 14.9187 26.5037 15.7266L19.5037 22.6016H19.5125Z" fill="white" fill-opacity="0.5"/>
</svg>
